<svg viewBox="0 0 200 100"><circle cx="24.6" cy="12.5" r="12.2"/><path d="M36.4 36H0v18h14.8v25.4H0v18h51.3v-18h-15m49.7-12L71.6 36H47l31.7 61.3h14.5L125 36h-24m96 17.4c-2-4-4.5-7.5-7.8-10.4-3.4-3-7.3-5.2-11.8-6.8-4.5-1.7-9.3-2.5-14.6-2.5-5.3 0-10.3 1-14.8 2.5-4.4 1.7-8.3 4-11.6 7-3.3 2.8-5.8 6.2-7.7 10.2-1.8 4-2.7 8.2-2.7 12.7 0 5 1 9.7 2.8 13.8 1.8 4 4.3 7.6 7.5 10.6 3.3 3 7 5.2 11.6 6.8 4.3 1.6 9.2 2.4 14.4 2.4 5.4 0 10.3-.8 15-2.4 4.5-1.6 8.4-4 11.7-6.8 3.3-3 6-6.4 7.8-10.4 2-4 2.8-8.4 2.8-13.3 0-5-1-9.3-2.7-13.3zM175.6 72c-.8 1.7-1.8 3.2-3 4.5-1.3 1.3-2.7 2.3-4.5 3-1.7.7-3.5 1-5.4 1-2 0-3.7-.3-5.4-1-1.7-.7-3.2-1.7-4.5-3-1.3-1.3-2.3-2.8-3-4.5-.8-1.7-1.2-3.6-1.2-5.7 0-2 .4-3.7 1.2-5.3.7-1.7 1.7-3.2 3-4.5 1.2-1.2 2.7-2.2 4.4-3 1.7-.7 3.5-1 5.4-1 2 0 3.7.3 5.4 1 1.8.8 3.2 1.8 4.5 3 1.2 1.3 2.2 2.8 3 4.5.7 1.7 1 3.5 1 5.5s-.3 3.8-1 5.5z"/></svg>